# xmcd CD database file
#
# Track frame offsets:
#	150
#	8957
#	17970
#	28728
#	35055
#	43571
#	53458
#	58519
#	66010
#	75331
#	80503
#	89772
#	100049
#	108650
#	117135
#	125828
#	134778
#	140010
#	147327
#	155725
#	164548
#	172520
#	181767
#	185009
#	194339
#	204370
#	208418
#	215931
#	224522
#	229423
#	239318
#	250656
#	254113
#	261864
#	270619
#
# Disc length: 3653 seconds
#
# Revision: 1
# Processed by: cddbd v1.5.2PL0 Copyright (c) Steve Scherf et al.
# Submitted via: CDex 1.51
#
DISCID=1b0e4323
DTITLE=Langenscheidt - Schwedisch in 30 Tagen
DYEAR=2011
DGENRE=Other
TTITLE0=Schwedisch in 30 Tahen - Intro
TTITLE1=Begrüßungen - schnell
TTITLE2=Begrüßungen - langsam
TTITLE3=Begrüßungen - Übung
TTITLE4=Kennenlernen und Small Talk - schnell
TTITLE5=Kennenlernen und Small Talk - langsam
TTITLE6=Kaffee oder Tee - Übung
TTITLE7=Schulleben - schnell
TTITLE8=Schulleben - langsam
TTITLE9=Schulleben - Übung
TTITLE10=Sie können schon viel mehr - schnell
TTITLE11=Sie können schon viel mehr - langsam
TTITLE12=Sie können schon viel mehr - Übung
TTITLE13=Wiederholen und üben Sie 1.1
TTITLE14=Wiederholen und üben Sie 1.2
TTITLE15=Zwischentest 1.1
TTITLE16=Zwischentest 1.2
TTITLE17=Einkaufen - schnell
TTITLE18=Einkaufen - langsam
TTITLE19=Einkaufen - Übung
TTITLE20=Im Restaurant - schnell
TTITLE21=Im Restaurant - langsam
TTITLE22=Im Restaurant - Übung
TTITLE23=Sehenswürdigkeiten - schnell
TTITLE24=Sehenswürdigkeiten - langsam
TTITLE25=Sehenswürdigkeiten - Übung
TTITLE26=Freizeitaktivitäten - schnell
TTITLE27=Freizeitaktivitäten - langsam
TTITLE28=Freizeitaktivitäten - Übung
TTITLE29=Neue Freundschaften - schnell
TTITLE30=Neue Freundschaften - langsam
TTITLE31=Neue Freundschaften - Übung
TTITLE32=Familienleben - schnell
TTITLE33=Familienleben - langsam
TTITLE34=Familienleben - Übung
EXTD=YEAR: 2011
EXTT0=
EXTT1=
EXTT2=
EXTT3=
EXTT4=
EXTT5=
EXTT6=
EXTT7=
EXTT8=
EXTT9=
EXTT10=
EXTT11=
EXTT12=
EXTT13=
EXTT14=
EXTT15=
EXTT16=
EXTT17=
EXTT18=
EXTT19=
EXTT20=
EXTT21=
EXTT22=
EXTT23=
EXTT24=
EXTT25=
EXTT26=
EXTT27=
EXTT28=
EXTT29=
EXTT30=
EXTT31=
EXTT32=
EXTT33=
EXTT34=
PLAYORDER=
